<?xml version="1.0" ?><!DOCTYPE svg  PUBLIC '-//W3C//DTD SVG 1.1//EN'  'http://www.w3.org/Graphics/SVG/1.1/DTD/svg11.dtd'><svg enable-background="new 0 0 100 100" height="100px" id="Layer_1" version="1.1" viewBox="0 0 100 100" width="100px" xml:space="preserve" xmlns="http://www.w3.org/2000/svg" xmlns:xlink="http://www.w3.org/1999/xlink"><g><path d="M80.5,30c0-1.381-1.119-2.5-2.5-2.5h-3.95c-0.001,0-0.003,0-0.004,0h-1.688C71.11,16.266,61.561,7.5,50,7.5   c-11.528,0-21.054,8.716-22.346,19.904l-1.333-3.333c-0.513-1.281-1.967-1.907-3.25-1.393c-1.282,0.513-1.905,1.968-1.393,3.25   l0.629,1.571H22c-1.381,0-2.5,1.119-2.5,2.5s1.119,2.5,2.5,2.5h3.998c0.001,0,0.002,0,0.003,0c0.002,0,0.003,0,0.005,0H27.5V62v28   c0,1.381,1.119,2.5,2.5,2.5h10h20h10c1.381,0,2.5-1.119,2.5-2.5V62V45.023c0-0.002,0-0.004,0-0.006V32.982l1.179,2.947   c0.391,0.977,1.33,1.572,2.322,1.572c0.309,0,0.623-0.058,0.928-0.179c1.282-0.513,1.905-1.968,1.393-3.25L77.693,32.5H78   C79.381,32.5,80.5,31.381,80.5,30z M61.118,62.764l-10-5c-0.506-0.253-1.076-0.318-1.618-0.206V42c0-0.714-0.305-1.394-0.839-1.868   c-0.533-0.474-1.248-0.697-1.953-0.615L32.5,41.189V32.5h6.085l-0.728,1.214c-0.71,1.184-0.327,2.72,0.857,3.43   c0.403,0.242,0.846,0.357,1.284,0.357c0.849,0,1.677-0.433,2.146-1.214l2.272-3.786h5.579c0.001,0,0.002,0,0.004,0   c0.001,0,0.003,0,0.004,0H57.5V35c0,1.381,1.119,2.5,2.5,2.5s2.5-1.119,2.5-2.5v-2.5h5v9.408l-10.976-2.352   c-1.354-0.293-2.679,0.571-2.968,1.92c-0.29,1.35,0.57,2.679,1.92,2.968l3.085,0.661c0.281,1.365,1.492,2.394,2.938,2.394   c0.998,0,1.877-0.494,2.423-1.246l3.577,0.767V53c0,4.618-1.847,9-5,12.227V65C62.5,64.053,61.965,63.188,61.118,62.764z    M38.882,62.764C38.035,63.188,37.5,64.053,37.5,65v0.227c-3.153-3.228-5-7.609-5-12.227v-6.777l3.326-0.391   c0.493,0.984,1.5,1.668,2.674,1.668c1.422,0,2.61-0.996,2.917-2.326l3.083-0.363v15.144L38.882,62.764z M50,12.5   c8.798,0,16.081,6.534,17.3,15H54.415l0.728-1.214c0.71-1.184,0.327-2.72-0.857-3.43c-1.185-0.711-2.719-0.326-3.43,0.857   L48.585,27.5H41.5V25c0-1.381-1.119-2.5-2.5-2.5s-2.5,1.119-2.5,2.5v2.5h-3.8C33.919,19.034,41.202,12.5,50,12.5z M32.5,67.105   c1.414,1.756,3.088,3.315,5,4.592V87.5h-5V67.105z M42.5,66.545l7.5-3.75l7.5,3.75V87.5h-15V66.545z M62.5,87.5V71.697   c1.912-1.278,3.586-2.836,5-4.592V87.5H62.5z"/><path d="M53,67.5h-6c-1.381,0-2.5,1.119-2.5,2.5s1.119,2.5,2.5,2.5h6c1.381,0,2.5-1.119,2.5-2.5S54.381,67.5,53,67.5z"/></g></svg>