<?xml version="1.0" ?><!DOCTYPE svg  PUBLIC '-//W3C//DTD SVG 1.1//EN'  'http://www.w3.org/Graphics/SVG/1.1/DTD/svg11.dtd'><svg enable-background="new 0 0 100 100" height="100px" id="Layer_1" version="1.1" viewBox="0 0 100 100" width="100px" xml:space="preserve" xmlns="http://www.w3.org/2000/svg" xmlns:xlink="http://www.w3.org/1999/xlink"><g><path d="M52,71.5h-4c-1.381,0-2.5,1.119-2.5,2.5s1.119,2.5,2.5,2.5h4c1.381,0,2.5-1.119,2.5-2.5S53.381,71.5,52,71.5z"/><path d="M72.5,46.97V38c0-5.942-2.312-11.535-6.417-15.723c1.41-1.586,2.58-3.346,3.462-5.281c0.573-1.256,0.018-2.739-1.238-3.312   c-1.258-0.574-2.739-0.019-3.312,1.238c-0.702,1.542-1.64,2.945-2.782,4.198c-1.187-0.768-2.444-1.413-3.749-1.943   c1.388-1.274,2.499-2.863,3.199-4.68c0.496-1.289-0.146-2.735-1.435-3.231c-1.288-0.496-2.735,0.146-3.231,1.435   C55.892,13.572,53.08,15.5,50,15.5c-11.004,0-20.326,7.856-22.16,18.653c-0.006,0.032-0.007,0.065-0.013,0.097   C27.619,35.139,27.5,36.06,27.5,37c0,0.104,0.018,0.202,0.031,0.303C27.523,37.536,27.5,37.766,27.5,38v8.97   c-4.074,1.525-7,6.696-7,13.03s2.926,11.505,7,13.03V77c0,0.551,0.182,1.087,0.519,1.524l10,13C38.492,92.14,39.224,92.5,40,92.5   h20c0.776,0,1.508-0.36,1.981-0.976l10-13C72.318,78.087,72.5,77.551,72.5,77v-3.97c4.074-1.525,7-6.696,7-13.03   S76.574,48.495,72.5,46.97z M27.5,66.901c-1.143-1.514-2-3.982-2-6.901s0.857-5.387,2-6.901V66.901z M67.5,46.5H56   c-1.381,0-2.5,1.119-2.5,2.5s1.119,2.5,2.5,2.5h2.5c0,1.654,1.346,3,3,3s3-1.346,3-3h3v4.92c0,6.5-2.916,11.335-8.667,14.369   c-1.017,0.536-1.537,1.696-1.26,2.812C57.85,74.716,58.851,75.5,60,75.5h7.5v0.65L58.769,87.5H41.231L32.5,76.15V75.5H40   c1.149,0,2.15-0.784,2.427-1.899c0.276-1.116-0.244-2.276-1.26-2.812C35.416,67.755,32.5,62.92,32.5,56.42V51.5h3   c0,1.654,1.346,3,3,3s3-1.346,3-3h3V66c0,1.381,1.119,2.5,2.5,2.5h6c1.381,0,2.5-1.119,2.5-2.5s-1.119-2.5-2.5-2.5h-3.5V49   c0-1.381-1.119-2.5-2.5-2.5H32.5v-1.514c0.091-0.069,0.184-0.135,0.268-0.219l2.5-2.5c2.354-2.353,2.354-6.182,0-8.535   l-1.236-1.236c1.38-1.835,3.55-2.996,5.969-2.996h10c4.445,0,8.749-1.373,12.35-3.887c1.838,1.828,3.221,4.015,4.09,6.405   l-1.725,1.712c-1.157,1.14-1.797,2.66-1.803,4.278c-0.006,1.613,0.619,3.129,1.76,4.27l2.5,2.5   c0.102,0.102,0.214,0.187,0.328,0.268V46.5z M72.5,66.901V53.099c1.143,1.514,2,3.982,2,6.901S73.643,65.387,72.5,66.901z"/></g></svg>