<?xml version="1.0" ?><!DOCTYPE svg  PUBLIC '-//W3C//DTD SVG 1.1//EN'  'http://www.w3.org/Graphics/SVG/1.1/DTD/svg11.dtd'><svg enable-background="new 0 0 100 100" height="100px" id="Layer_1" version="1.1" viewBox="0 0 100 100" width="100px" xml:space="preserve" xmlns="http://www.w3.org/2000/svg" xmlns:xlink="http://www.w3.org/1999/xlink"><g><path d="M53,63.5h-6c-1.381,0-2.5,1.119-2.5,2.5s1.119,2.5,2.5,2.5h6c1.381,0,2.5-1.119,2.5-2.5S54.381,63.5,53,63.5z"/><path d="M79.5,51c0-6.334-2.926-11.505-7-13.03V30c0-6.007-2.341-11.657-6.593-15.908C61.656,9.841,56.007,7.5,50,7.5   c-8.748,0-16.734,5.156-20.399,13H23c-1.381,0-2.5,1.119-2.5,2.5s1.119,2.5,2.5,2.5h4.97c-0.135,0.662-0.24,1.328-0.315,2H23   c-1.381,0-2.5,1.119-2.5,2.5s1.119,2.5,2.5,2.5h2.951l1.126,5.632C23.224,39.846,20.5,44.886,20.5,51c0,6.334,2.926,11.505,7,13.03   V70c0,0.796,0.037,1.536,0.112,2.248c0.513,5.143,2.814,9.994,6.48,13.66c4.251,4.25,9.9,6.592,15.907,6.592   c11.621,0,21.246-8.708,22.387-20.239C72.463,71.536,72.5,70.796,72.5,70v-5.97C76.574,62.505,79.5,57.334,79.5,51z M25.5,51   c0-2.918,0.857-5.387,2-6.901v13.801C26.357,56.387,25.5,53.918,25.5,51z M50,87.5c-4.671,0-9.064-1.821-12.372-5.128   c-2.185-2.185-3.74-4.913-4.531-7.872H34c0.888,0,1.706-0.475,2.154-1.241s0.455-1.716,0.021-2.491   C36.139,70.703,32.5,64.068,32.5,52v-9.5h3c0,1.654,1.346,3,3,3s3-1.346,3-3h3V57c0,1.381,1.119,2.5,2.5,2.5h6   c1.381,0,2.5-1.119,2.5-2.5s-1.119-2.5-2.5-2.5h-3.5V40c0-1.381-1.119-2.5-2.5-2.5H32.5v-5.006   c6.264-0.036,15.57-0.33,22.961-2.641c3.02,2.353,6.386,2.758,9.593,2.758c0.83,0,1.647-0.028,2.446-0.055V37.5H55   c-1.381,0-2.5,1.119-2.5,2.5s1.119,2.5,2.5,2.5h3.5c0,1.654,1.346,3,3,3s3-1.346,3-3h3V52c0,12.068-3.639,18.703-3.671,18.76   c-0.441,0.773-0.438,1.724,0.009,2.495C64.285,74.025,65.108,74.5,66,74.5h0.904C64.918,82.072,58.089,87.5,50,87.5z M72.5,57.901   V44.099c1.143,1.514,2,3.982,2,6.901S73.643,56.387,72.5,57.901z"/></g></svg>