<?xml version="1.0" ?><!DOCTYPE svg  PUBLIC '-//W3C//DTD SVG 1.1//EN'  'http://www.w3.org/Graphics/SVG/1.1/DTD/svg11.dtd'><svg enable-background="new 0 0 100 100" height="100px" id="Layer_1" version="1.1" viewBox="0 0 100 100" width="100px" xml:space="preserve" xmlns="http://www.w3.org/2000/svg" xmlns:xlink="http://www.w3.org/1999/xlink"><g><path d="M47,70.5h6c1.381,0,2.5-1.119,2.5-2.5s-1.119-2.5-2.5-2.5h-6c-1.381,0-2.5,1.119-2.5,2.5S45.619,70.5,47,70.5z"/><path d="M50,7.5C37.594,7.5,27.5,17.593,27.5,30v60c0,1.381,1.119,2.5,2.5,2.5h40c1.381,0,2.5-1.119,2.5-2.5V30   C72.5,17.593,62.406,7.5,50,7.5z M50,12.5c9.649,0,17.5,7.851,17.5,17.5v7.5H53c-1.381,0-2.5,1.119-2.5,2.5v14.5h-1V40   c0-1.381-1.119-2.5-2.5-2.5H32.5V30C32.5,20.351,40.351,12.5,50,12.5z M48.035,59.5h3.93l5.535,5.536V77.5h-15V65.036L48.035,59.5z    M32.5,87.5v-45h3c0,1.654,1.346,3,3,3s3-1.346,3-3h3v13.465l-6.268,6.268C37.764,62.701,37.5,63.337,37.5,64v16   c0,1.381,1.119,2.5,2.5,2.5h20c1.381,0,2.5-1.119,2.5-2.5V64c0-0.663-0.264-1.299-0.732-1.768L55.5,55.964V42.5h3   c0,1.654,1.346,3,3,3s3-1.346,3-3h3v45H32.5z"/></g></svg>