<?xml version="1.0" ?><!DOCTYPE svg  PUBLIC '-//W3C//DTD SVG 1.1//EN'  'http://www.w3.org/Graphics/SVG/1.1/DTD/svg11.dtd'><svg enable-background="new 0 0 100 100" height="100px" id="Layer_1" version="1.1" viewBox="0 0 100 100" width="100px" xml:space="preserve" xmlns="http://www.w3.org/2000/svg" xmlns:xlink="http://www.w3.org/1999/xlink"><path d="M90,29.5c-1.381,0-2.5,1.119-2.5,2.5c0,1.378-1.122,2.5-2.5,2.5s-2.5-1.122-2.5-2.5C82.5,18.491,71.509,7.5,58,7.5h-3  c-1.922,0-3.672,0.733-5,1.926C48.672,8.233,46.922,7.5,45,7.5h-3C28.491,7.5,17.5,18.491,17.5,32c0,1.378-1.122,2.5-2.5,2.5  s-2.5-1.122-2.5-2.5c0-1.381-1.119-2.5-2.5-2.5S7.5,30.619,7.5,32c0,23.846,6.197,35.205,20,36.39V80  c0,0.663,0.263,1.299,0.732,1.768l10,10C38.701,92.237,39.337,92.5,40,92.5h20c0.663,0,1.299-0.263,1.768-0.732l10-10  C72.237,81.299,72.5,80.663,72.5,80V68.39c13.803-1.185,20-12.544,20-36.39C92.5,30.619,91.381,29.5,90,29.5z M27.5,45v17v1.376  c-6.976-0.738-13.505-5.217-14.777-24.232C13.442,39.374,14.206,39.5,15,39.5c4.136,0,7.5-3.364,7.5-7.5  c0-10.752,8.748-19.5,19.5-19.5h3c1.378,0,2.5,1.122,2.5,2.5v15c0,1.806-0.738,2.343-6.269,2.964C35.763,33.579,27.5,34.507,27.5,45  z M67.5,62v16.964L58.964,87.5H41.036L32.5,78.964V62V47.811l3.083,0.363c0.308,1.33,1.495,2.326,2.917,2.326  c1.174,0,2.181-0.684,2.674-1.668l3.326,0.391V66c0,1.381,1.119,2.5,2.5,2.5h6c1.381,0,2.5-1.119,2.5-2.5s-1.119-2.5-2.5-2.5h-3.5  V47c0-1.268-0.949-2.335-2.208-2.483l-14.581-1.715c0.79-3.729,3.865-4.283,9.078-4.869c2.703-0.304,5.994-0.685,8.21-2.373  c2.217,1.688,5.508,2.069,8.21,2.373c5.24,0.589,8.322,1.143,9.092,4.927l-11.656,1.665c-1.367,0.195-2.316,1.462-2.122,2.829  c0.178,1.247,1.248,2.147,2.472,2.147c0.118,0,0.237-0.008,0.356-0.025l2.619-0.374c0.533,0.838,1.463,1.399,2.528,1.399  c1.364,0,2.506-0.921,2.869-2.17l3.131-0.447V62z M72.5,63.376V62V45c0-10.493-8.263-11.421-13.731-12.036  C53.238,32.343,52.5,31.806,52.5,30V15c0-1.378,1.122-2.5,2.5-2.5h3c10.752,0,19.5,8.748,19.5,19.5c0,4.136,3.364,7.5,7.5,7.5  c0.794,0,1.558-0.126,2.277-0.356C86.005,58.159,79.476,62.638,72.5,63.376z M53,73.5h-6c-1.381,0-2.5,1.119-2.5,2.5  s1.119,2.5,2.5,2.5h6c1.381,0,2.5-1.119,2.5-2.5S54.381,73.5,53,73.5z"/></svg>